<svg id="Layer_1" data-name="Layer 1" xmlns="http://www.w3.org/2000/svg" viewBox="0 0 378.39 373.69"><defs><style>.cls-1,.cls-2,.cls-3,.cls-4,.cls-5{isolation:isolate;}.cls-2,.cls-3{font-size:86px;font-family:ArialMT, Arial;}.cls-2,.cls-3,.cls-7{fill:#991b7f;}.cls-2{letter-spacing:0.02em;}.cls-4,.cls-5{font-size:21.5px;fill:#fff;font-family:Avenir-Medium, Avenir;font-weight:500;}.cls-4{letter-spacing:0.14em;}.cls-5{letter-spacing:0.03em;}.cls-6{fill:#6e2370;}</style></defs><title>vibeque_logo-01_nega</title><g class="cls-1"><text class="cls-2" transform="translate(0 314.53)">V</text><text class="cls-3" transform="translate(53.41 314.53)">IBEQUE</text></g><g class="cls-1"><text class="cls-4" transform="translate(49.09 364.9)">GOOD VIBES ON</text><text class="cls-5" transform="translate(261.77 364.9)">L</text><text class="cls-4" transform="translate(273.55 364.9)">Y</text></g><polygon class="cls-6" points="163.83 130.41 109.63 148.49 124.15 155.13 166.94 140.86 163.83 130.41"/><polygon class="cls-6" points="203.51 191.45 160.37 33.39 154.31 35.42 195.96 187.99 203.51 191.45"/><polygon class="cls-6" points="176.91 31.67 179.82 42.18 244.74 20.53 241.59 10.09 176.91 31.67"/><polygon class="cls-6" points="84.71 153.01 82.17 153.86 82.18 153.89 66.89 158.98 225.22 230.2 220.8 214.23 84.71 153.01"/><polygon class="cls-7" points="171.28 29.31 175.16 28.02 242.21 5.65 240.51 0 162.32 26.09 207.27 190.75 209.69 199.61 201.33 195.79 107.45 152.83 97.54 148.29 107.88 144.84 164.42 125.98 162.74 120.32 91.51 144.09 91.51 144.09 86.33 145.85 81.5 147.46 221.43 210.41 172.38 33.25 171.28 29.31"/></svg>